<svg xmlns="http://www.w3.org/2000/svg" width="148" height="150.597" viewBox="0 0 148 150.597">
  <path id="blob" d="M-56.136-54.295C-69.279-39.376-76.069-18.241-70.7-2.2c5.367,16.162,22.781,27.1,33.295,38.291C-27,47.153-23.717,58.466-16.27,64.931c7.448,6.589,18.947,8.454,35.047,8.827,16.209.249,37.019-.995,47.533-13.178C76.934,48.52,77.263,25.4,72.553,4.759A118.562,118.562,0,0,0,44.515-48.824c-13.581-14.794-31.1-26.356-49.5-27.848C-23.5-78.04-42.993-69.213-56.136-54.295Z" transform="translate(72.547 76.812)" fill="#f2f2f2"/>
</svg>
