<?xml version="1.0" encoding="UTF-8"?>
<svg width="512px" height="512px" viewBox="0 0 512 512" version="1.1" xmlns="http://www.w3.org/2000/svg" xmlns:xlink="http://www.w3.org/1999/xlink">
    <title>Group 2</title>
    <g id="Page-1" stroke="none" stroke-width="1" fill="none" fill-rule="evenodd">
        <g id="Desktop" transform="translate(-292.000000, -81.000000)">
            <g id="Group-2" transform="translate(292.000000, 81.000000)">
                <rect id="Rectangle" fill="#FFFFFF" x="0" y="0" width="512" height="512" rx="28"></rect>
                <path d="M257.446541,415 C274.880503,415 291.023061,413.141947 305.874214,409.425841 C320.725367,405.709735 333.5587,399.974006 344.374214,392.218654 C355.189727,384.463303 363.66457,374.769113 369.798742,363.136086 C375.932914,351.503058 379,337.769623 379,321.93578 C379,300.608563 373.269392,283.724516 361.808176,271.283639 C350.34696,258.842762 335.899371,250.683486 318.465409,246.80581 L318.465409,246.80581 L318.465409,244.866972 C332.348008,240.019878 343.163522,231.133537 350.91195,218.207951 C358.660377,205.282365 362.534591,191.22579 362.534591,176.038226 C362.534591,161.496942 359.709644,149.217635 354.059748,139.200306 C348.409853,129.182977 340.5,121.18527 330.330189,115.207187 C320.160377,109.229103 308.214885,104.866718 294.493711,102.120031 C280.772537,99.3733435 265.679245,98 249.213836,98 L249.213836,98 L148,98 L148,415 L257.446541,415 Z M244.13615,229 L204,229 L204,142 L245.103286,142 C265.735524,142 281.209703,145.222222 291.525822,151.666667 C301.841941,158.111111 307,169.066667 307,184.533333 C307,198.066667 302.083725,208.861111 292.251174,216.916667 C282.418623,224.972222 266.380282,229 244.13615,229 L244.13615,229 Z M251.419355,371 L204,371 L204,271 L251.419355,271 C275.290323,271 293.354839,274.784219 305.612903,282.352657 C317.870968,289.921095 324,302.078905 324,318.826087 C324,336.539452 317.709677,349.663446 305.129032,358.198068 C292.548387,366.732689 274.645161,371 251.419355,371 L251.419355,371 Z" id="B" fill="#000000" fill-rule="nonzero"></path>
            </g>
        </g>
    </g>
</svg>