<svg xmlns="http://www.w3.org/2000/svg" width="187.563" height="168.134" viewBox="0 0 187.563 168.134">
  <path id="blob" d="M94.218,66.183c16.656-16.656,25.262-40.252,18.46-58.157-6.8-18.044-28.87-30.258-42.2-42.75C57.3-47.078,53.133-59.709,43.694-66.927c-9.438-7.356-24.012-9.438-44.416-9.855-20.542-.278-46.915,1.11-60.239,14.713C-74.425-48.605-74.841-22.788-68.873.253-62.9,23.155-50.551,43.42-33.34,60.076-16.129,76.593,6.079,89.5,29.4,91.167,52.855,92.694,77.562,82.839,94.218,66.183Z" transform="translate(72.547 76.812)" fill="#f2f2f2"/>
</svg>
